<svg width="164" height="164" viewBox="0 0 164 164" fill="none" xmlns="http://www.w3.org/2000/svg">
<circle cx="82" cy="82" r="82" fill="#D3D3D3"/>
<path d="M65.544 88.128C65.5333 88.128 65.496 88.128 65.432 88.128C65.3787 88.128 65.3253 88.128 65.272 88.128C65.2187 88.128 65.1867 88.128 65.176 88.128C63.4373 88.1067 62.088 87.7227 61.128 86.976C60.168 86.2187 59.688 85.1413 59.688 83.744C59.688 82.3573 60.168 81.296 61.128 80.56C62.0987 79.8133 63.464 79.4347 65.224 79.424C65.2453 79.424 65.2773 79.424 65.32 79.424C65.3733 79.424 65.4213 79.424 65.464 79.424C65.5173 79.424 65.5493 79.424 65.56 79.424C67.3413 79.424 68.7227 79.7973 69.704 80.544C70.696 81.2907 71.192 82.3573 71.192 83.744C71.192 85.152 70.696 86.2347 69.704 86.992C68.712 87.7493 67.3253 88.128 65.544 88.128ZM65.512 86.784C66.44 86.784 67.208 86.6667 67.816 86.432C68.4347 86.1973 68.8987 85.856 69.208 85.408C69.5173 84.96 69.672 84.4053 69.672 83.744C69.672 83.0933 69.5173 82.5493 69.208 82.112C68.8987 81.6747 68.4347 81.344 67.816 81.12C67.208 80.896 66.44 80.784 65.512 80.784C65.4907 80.784 65.448 80.784 65.384 80.784C65.32 80.784 65.2827 80.784 65.272 80.784C64.3653 80.784 63.608 80.9013 63 81.136C62.4027 81.36 61.9547 81.6907 61.656 82.128C61.3573 82.5653 61.208 83.104 61.208 83.744C61.208 84.3947 61.3573 84.944 61.656 85.392C61.9653 85.84 62.4187 86.1813 63.016 86.416C63.624 86.6507 64.376 86.7733 65.272 86.784C65.2933 86.784 65.3307 86.784 65.384 86.784C65.448 86.784 65.4907 86.784 65.512 86.784ZM64.68 91.104V76.128H66.184V91.104H64.68ZM77.795 88.096C76.9417 88.096 76.1843 87.9093 75.523 87.536C74.8617 87.1627 74.339 86.6507 73.955 86C73.571 85.3387 73.379 84.592 73.379 83.76C73.379 82.9173 73.571 82.1707 73.955 81.52C74.339 80.8693 74.8617 80.3627 75.523 80C76.1843 79.6267 76.9417 79.44 77.795 79.44C78.6377 79.44 79.3897 79.6267 80.051 80C80.723 80.3627 81.2457 80.8693 81.619 81.52C82.003 82.16 82.195 82.9067 82.195 83.76C82.195 84.6027 82.003 85.3493 81.619 86C81.2457 86.6507 80.723 87.1627 80.051 87.536C79.3897 87.9093 78.6377 88.096 77.795 88.096ZM77.795 86.752C78.339 86.752 78.8243 86.6293 79.251 86.384C79.6883 86.1387 80.0297 85.792 80.275 85.344C80.5203 84.8853 80.643 84.3573 80.643 83.76C80.643 83.152 80.5203 82.6293 80.275 82.192C80.0297 81.744 79.6883 81.3973 79.251 81.152C78.8243 80.9067 78.339 80.784 77.795 80.784C77.251 80.784 76.7657 80.9067 76.339 81.152C75.9123 81.3973 75.571 81.744 75.315 82.192C75.059 82.6293 74.931 83.152 74.931 83.76C74.931 84.3573 75.059 84.8853 75.315 85.344C75.571 85.792 75.9123 86.1387 76.339 86.384C76.7657 86.6293 77.251 86.752 77.795 86.752ZM86.5805 88V80.464L86.9645 80.864H83.4765V79.52H91.2205V80.864H87.7485L88.1165 80.464V88H86.5805ZM96.8481 88.096C95.9948 88.096 95.2375 87.9093 94.5761 87.536C93.9148 87.1627 93.3921 86.6507 93.0081 86C92.6241 85.3387 92.4321 84.592 92.4321 83.76C92.4321 82.9173 92.6241 82.1707 93.0081 81.52C93.3921 80.8693 93.9148 80.3627 94.5761 80C95.2375 79.6267 95.9948 79.44 96.8481 79.44C97.6908 79.44 98.4428 79.6267 99.1041 80C99.7761 80.3627 100.299 80.8693 100.672 81.52C101.056 82.16 101.248 82.9067 101.248 83.76C101.248 84.6027 101.056 85.3493 100.672 86C100.299 86.6507 99.7761 87.1627 99.1041 87.536C98.4428 87.9093 97.6908 88.096 96.8481 88.096ZM96.8481 86.752C97.3921 86.752 97.8775 86.6293 98.3041 86.384C98.7415 86.1387 99.0828 85.792 99.3281 85.344C99.5735 84.8853 99.6961 84.3573 99.6961 83.76C99.6961 83.152 99.5735 82.6293 99.3281 82.192C99.0828 81.744 98.7415 81.3973 98.3041 81.152C97.8775 80.9067 97.3921 80.784 96.8481 80.784C96.3041 80.784 95.8188 80.9067 95.3921 81.152C94.9655 81.3973 94.6241 81.744 94.3681 82.192C94.1121 82.6293 93.9841 83.152 93.9841 83.76C93.9841 84.3573 94.1121 84.8853 94.3681 85.344C94.6241 85.792 94.9655 86.1387 95.3921 86.384C95.8188 86.6293 96.3041 86.752 96.8481 86.752Z" fill="#676767"/>
</svg>
